<svg version="1.1" xmlns="http://www.w3.org/2000/svg" xmlns:xlink="http://www.w3.org/1999/xlink" width="77.07207" height="77.07207" viewBox="0,0,77.07207,77.07207"><g transform="translate(-281.46396,-141.46397)"><g data-paper-data="{&quot;isPaintingLayer&quot;:true}" fill-rule="nonzero" stroke-linecap="butt" stroke-linejoin="miter" stroke-miterlimit="10" stroke-dasharray="" stroke-dashoffset="0" style="mix-blend-mode: normal"><path d="M283.96396,216.03605v-72.07207h72.07207v72.07207z" fill="none" stroke="#000000" stroke-width="5"/><path d="M299.03481,178.86485c-0.21454,-0.28077 -0.42908,-0.56153 -0.64362,-0.8423c-0.16803,-4.36334 -0.59699,-7.31512 3.13714,-10.30902c1.14317,-0.91656 2.28467,-2.26727 3.74966,-2.29397c5.47678,-0.09983 4.86625,2.37343 5.13534,5.7621c0.56462,-1.14398 1.17448,-2.22753 1.24562,-2.64744c0.44555,-2.62968 -1.40737,-8.51317 2.04321,-10.07597c3.71427,-1.68223 6.22752,2.3695 7.20586,4.73953c0.01303,0.03156 0.02587,0.06313 0.03852,0.09472c2.42332,-0.92911 5.15215,-1.50263 6.62525,-1.64657c1.47217,-0.14385 3.18024,-0.56798 4.43208,0.21997c1.56029,0.9821 3.05253,2.70821 3.14535,4.54951c0.05736,1.13779 -1.18057,1.82895 -2.13413,2.62546c0.24984,0.03689 0.51952,0.08445 0.81225,0.14323c1.83136,0.36772 4.47813,0.21391 5.2697,1.90581c0.61275,1.30968 -0.92896,3.34064 -2.45316,4.96398c0.25139,-0.04019 0.50615,-0.04245 0.76543,0.00706c1.6738,0.31964 2.68997,2.09263 4.03495,3.13894c0.05076,1.48255 0.4713,2.99895 0.15228,4.44766c-1.07911,4.90033 -8.33539,8.57089 -11.95357,11.15623c-1.44713,1.03403 -7.18472,5.21295 -8.67051,5.93241c-6.1697,2.9875 -16.22614,0.08423 -20.39851,-5.10446c-3.63974,-4.52632 -1.74172,-6.5454 -1.3597,-11.61636c0.12911,-1.71385 -0.05195,-3.43181 -0.17944,-5.15053z" fill="#000000" stroke="none" stroke-width="0.5"/></g></g></svg>