<svg version="1.1" xmlns="http://www.w3.org/2000/svg" xmlns:xlink="http://www.w3.org/1999/xlink" width="77.07207" height="77.07207" viewBox="0,0,77.07207,77.07207"><g transform="translate(-281.46397,-141.46396)"><g data-paper-data="{&quot;isPaintingLayer&quot;:true}" fill-rule="nonzero" stroke-linecap="butt" stroke-linejoin="miter" stroke-miterlimit="10" stroke-dasharray="" stroke-dashoffset="0" style="mix-blend-mode: normal"><path d="M292.71123,160.99453c-0.01165,-0.00543 -0.01771,-0.00846 -0.01771,-0.00846l-2.88197,-1.73607c-2.57741,-3.60654 -4.60199,-10.49212 0.26825,-13.6755c1.46363,-0.95669 5.60691,-0.06896 7.18245,0.21646c5.68012,1.02901 11.78182,0.45904 17.5493,0.45904c5.00237,0 10.27021,-0.47362 15.24634,0.01217c3.31601,0.32372 5.97073,0.63294 9.30295,0.0288c1.81196,-0.32851 8.59542,-2.92123 9.85227,-2.11113c1.26776,0.81713 1.11194,5.43052 1.09843,7.07017c-0.04795,5.81711 -3.53978,12.67084 -6.15529,17.86737c-2.16046,8.77031 -3.87661,17.68626 -8.1051,25.74354c-1.35104,2.57436 -1.75729,6.34311 -6.72442,4.68696c-2.70979,-0.90351 -3.06668,-7.60457 -3.47424,-9.84716c-1.50094,-8.25888 -1.82955,-16.58894 -3.45721,-24.80903c-0.69279,-2.08452 -1.80006,-4.96005 -2.20893,-7.36021c-0.00106,0.00303 -0.00209,0.00606 -0.00311,0.00911c-0.1807,0.54209 0.11088,1.13828 0.12829,1.70943c0.08608,2.82428 0,5.67539 0,8.5c0,7.28719 2.09015,15.86687 -0.6682,22.90149c-1.00669,2.56738 -2.6975,5.38442 -4.3318,7.59851c-2.39423,3.17673 -5.05791,7.41177 -9.76777,3.76777c-1.00278,-0.77585 -0.76168,-2.41866 -1.14848,-3.6261c-1.39245,-4.34663 -1.21343,-8.87133 -1.57158,-13.39533c-0.26893,-3.39693 -3.16112,-6.70119 -4.72472,-9.58247c-2.34645,-4.32385 -4.14074,-9.46638 -5.38777,-14.41935z" fill="#00e9ff" stroke="none" stroke-width="0.5"/><path d="M283.96397,216.03604v-72.07207h72.07207v72.07207z" fill="none" stroke="#000000" stroke-width="5"/></g></g></svg>