<svg version="1.1" xmlns="http://www.w3.org/2000/svg" xmlns:xlink="http://www.w3.org/1999/xlink" width="53.93159" height="63.3482" viewBox="0,0,53.93159,63.3482"><g transform="translate(-292.58842,-148.3259)"><g data-paper-data="{&quot;isPaintingLayer&quot;:true}" fill-rule="nonzero" stroke="none" stroke-width="0.5" stroke-linecap="butt" stroke-linejoin="miter" stroke-miterlimit="10" stroke-dasharray="" stroke-dashoffset="0" style="mix-blend-mode: normal"><path d="M342.93224,149.3659c1.5,2 -0.5,3.5 -0.5,3.5l-1.25572,0.84463c-0.22422,0.90298 -0.75098,1.36399 -1.28946,1.59452c-1.1302,1.4152 -2.55963,3.2254 -2.80703,3.65445c-4.0892,7.09144 0.60158,13.66382 5.48905,18.67149c1.45088,3.2844 4.53975,8.93619 3.85262,12.70125c-0.83682,4.58529 -6.54301,7.79727 -8.41817,11.84497c-0.58391,1.26041 -0.29756,2.83016 -0.94643,4.05838c-0.54597,1.03342 -4.52833,4.638 -5.69733,5.05605c-3.21246,1.14881 -6.60631,-0.57879 -9.5509,-1.40026c-5.77824,-1.61197 -11.91527,-2.47531 -17.79164,-3.71244c0,0 -1.5199,-0.31998 -1.91146,-1.65352c-0.80386,0.01108 -1.45975,-0.38245 -1.45975,-0.38245l-2.08345,-1.25222c-1.03187,-0.5524 -2.27623,-0.82142 -3.0956,-1.65721c-4.27251,-4.35811 -0.48031,-9.2376 0.54909,-14.03411c0.47889,-2.23139 0.02238,-4.58584 0.41515,-6.83399c0.48216,-2.75983 2.11448,-4.92317 3.13638,-7.35009c-0.08553,-0.26026 -0.13533,-0.5633 -0.13533,-0.91612c0,-1.07205 0.45971,-1.68438 0.98487,-2.03413c0.20614,-0.63833 0.85763,-1.98048 2.65423,-1.75223c0.08684,-0.05069 0.17547,-0.09853 0.26618,-0.14303c0.53016,-0.26008 1.30925,0.24116 1.76661,-0.13239c0.26872,-0.21947 -0.37483,-0.59656 -0.46338,-0.93202c-0.17508,-0.66329 -0.09789,-1.3838 -0.31931,-2.03309c-1.4268,-4.18393 -5.12396,-7.5028 -7.63019,-11.07349c-0.34691,-0.31348 -0.62801,-0.77428 -0.70485,-1.45163c-0.09491,-0.46423 -0.09026,-1.03374 0.23088,-1.58458c0.28018,-0.57275 0.75147,-0.89253 1.19038,-1.07107c0.59368,-0.30535 1.12323,-0.33249 1.5706,-0.22568h2.08731c3.37386,0 6.82723,0.21214 10.1938,0.00852c1.14965,-0.06953 2.31943,-0.64235 3.43632,-0.36114c1.49751,0.37704 2.59395,2.15731 4.13655,2.08595c3.20226,-0.14812 6.25291,-1.93824 9.39197,-2.16267c2.69007,-0.19233 6.40773,0.52348 9.40689,1.06188l1.80113,-1.43255c0,0 2,-1.5 3.5,0.5z" fill="#bababa"/><path d="M314.67623,168.74562l1.64043,-0.99562c3.29917,0.06951 9.70423,1.20945 9.41804,6.24275c-0.08706,1.53122 -1.91163,2.42733 -3.08964,3.40943c-0.3296,0.27478 -1.26142,-0.2057 -1.26782,0.22337c-0.00814,0.5453 1.12514,0.52595 1.24871,1.05713c0.6592,2.83374 0.00926,6.063 -2.87749,7.59026c-4.3939,2.32463 -6.21543,0.22201 -7.9912,-3.59846c-0.45879,-0.98707 0.61078,-2.89887 -0.42358,-3.23787c-1.05178,-0.34471 -2.66097,0.42879 -3.2848,-0.48549c-3.16799,-4.64298 1.13519,-7.97127 4.38153,-9.97817c0,0 1.13297,-0.67978 2.2458,-0.22732z" fill="#ba0000"/><path d="M326.6211,195.16659c-0.29139,-1.93315 -0.62563,-4.71623 0.08673,-5.78167c2.20946,-3.30458 5.46443,-3.05903 8.37209,-1.25228c0.51727,0.32142 0.05396,1.42494 0.57949,1.73265c0.35813,0.20969 0.01392,-0.93052 0.32885,-1.2008c1.10563,-0.94886 2.27672,-2.40504 3.7284,-2.28116c1.74162,0.14862 3.27744,1.56739 4.32292,2.9682c0.78603,1.05317 0.79206,2.55106 0.77708,3.86513c-0.06888,6.04083 -6.26129,6.09815 -8.46205,11.01131c-0.97216,2.17034 -1.41121,6.66184 -5.68816,5.75909c-4.98421,-1.05202 -3.7726,-4.70935 -3.40879,-7.47485c-0.6701,-1.81733 -2.56645,-3.51617 -2.13491,-5.40442c0.18616,-0.81456 0.80796,-1.39622 1.49835,-1.94121z" fill="#ba0000"/><path d="M297.4562,179.89729c0.54869,-2.03626 2.74736,-1.72217 2.74736,-1.72217c1.98069,0.28917 5.96627,0.56411 7.30789,2.3131c0.29071,0.37898 0.65693,5.414 0.459,6.97202c1.01126,0.26545 1.937,0.87725 2.78127,1.4975c3.2663,2.39962 5.31418,3.88438 2.86479,8.26591c-1.64449,2.9417 -8.14212,3.86703 -10.96716,3.16897c-1.89152,-0.46739 -3.15428,-2.30615 -4.86071,-3.24657c-2.77988,-1.53199 -5.06698,-0.39659 -5.19965,-5.39716c-0.03346,-1.26124 1.46719,-2.06522 2.03164,-3.1936c0.38394,-0.76752 0.52763,-1.63329 0.79144,-2.44993c0.77191,-1.25107 1.32633,-2.67839 1.53863,-4.13302l-0.03402,-0.45567c0,0 0,-0.89948 0.53953,-1.61937z" fill="#ba0000"/></g></g></svg>