<svg version="1.1" xmlns="http://www.w3.org/2000/svg" xmlns:xlink="http://www.w3.org/1999/xlink" width="610.13423" height="119.63527" viewBox="0,0,610.13423,119.63527"><g transform="translate(-9.38767,-8.56702)"><g data-paper-data="{&quot;isPaintingLayer&quot;:true}" fill="#ffffff" fill-rule="nonzero" stroke="none" stroke-width="0.5" stroke-linecap="butt" stroke-linejoin="miter" stroke-miterlimit="10" stroke-dasharray="" stroke-dashoffset="0" style="mix-blend-mode: normal"><path d="M24.48448,22.87627c-0.12948,-3.37134 -0.33974,-7.07213 2.72972,-9.41731c1.59564,-1.21913 4.24013,-0.21426 5.85856,-1.40298c1.43095,-1.05102 2.32304,-3.09592 4.06432,-3.44262c1.58302,-0.31518 3.05624,1.05614 4.52149,1.73315c1.30671,0.60376 2.87727,0.97324 3.7736,2.09957c1.06521,1.33854 0.85465,3.36415 1.73949,4.82818c0.70228,1.16196 1.93632,1.9037 2.90448,2.85556c1.56819,3.13637 4.06523,4.78374 4.76847,8.09908c0.03129,0.1475 0.0977,-0.29381 0.08581,-0.44412c-0.08445,-1.06731 -0.32148,-2.12078 -0.37337,-3.19018c-0.13057,-2.69089 -0.77834,-5.52386 0.06688,-8.08189c1.6884,-5.10987 5.5921,-6.16265 10.51501,-4.86174c2.72738,0.72072 4.63724,3.21606 6.8934,4.90952c0.94148,0.70667 2.22378,0.87495 3.1431,1.61023c2.05776,1.64581 3.1006,4.26632 4.79127,6.28738c1.07574,1.28596 2.80785,2.12507 3.42407,3.6843c0.66949,1.69401 0.14936,3.64016 0.1903,5.46121c0.00389,0.17315 0.00727,0.34201 0.01009,0.50687c0.78662,-0.51804 1.68269,-0.98406 2.77146,-1.3981c1.16183,-0.44183 2.48462,-0.08746 3.72746,-0.10727c5.79149,-0.0923 10.53819,1.01666 15.97172,3.1933c0.5776,0.23138 6.61828,3.31731 6.81706,3.54493c2.97553,3.40726 2.9811,6.13428 0,9.54154c-0.0931,0.10641 -0.20231,0.18443 -0.3233,0.24195c0.01898,-0.00195 0.03799,-0.00369 0.05704,-0.00521c0.99785,-0.07941 2.002,0 3.003,0c3.5035,0 7.00701,0 10.51051,0c1.65961,0.01514 3.34728,-0.25892 4.97882,0.04541c1.49219,0.27834 2.7629,1.30401 4.23523,1.67328c1.64933,0.41367 3.43185,0.16289 5.05867,0.65773c1.54522,0.47002 2.77294,1.72999 4.31969,2.19496c1.07486,0.32311 2.36382,-0.39184 3.36515,0.11517c1.59634,0.80829 2.57839,2.48955 3.97878,3.60336c1.45782,1.15949 3.46754,1.70833 4.57896,3.20312c2.67697,3.60034 3.17715,10.39961 -0.219,13.79576c-1.80301,1.80301 -4.83485,1.66005 -7.32822,2.19371c-1.39539,0.29865 -2.60062,1.27187 -4.00901,1.5015c-0.31317,0.05106 -9.11762,0.04002 -9.95006,0.04002c-0.64884,0 -6.22815,0.01871 -6.58039,-0.06688c-2.62945,-0.63891 -4.9182,-2.337 -7.53897,-3.01065c-2.77397,-0.71302 -5.64907,-0.9494 -8.47299,-1.42774c-5.04744,-0.85499 -9.97659,-1.6472 -14.91773,-3.0096c-0.97042,-0.26757 -5.48003,-2.12158 -7.06596,-0.95411c-0.41803,0.30773 0.46839,0.949 0.52949,1.46447c0.11781,0.99404 0,2.002 0,3.003c0,3.98479 0.20295,8.03308 0,12.01201c-0.07358,1.44261 0.35158,3.06794 -0.37337,4.31733c-0.56168,0.968 -2.37491,0.57522 -3.003,1.5015c-0.65008,0.95872 0.53836,2.72381 -0.35886,3.45644c-1.06592,0.87039 -6.08254,0.74075 -7.77377,0.73223c-3.49119,-0.01759 -5.75538,0.29001 -9.09279,-2.0684c-1.10016,-0.77744 -1.13472,-2.5085 -2.08831,-3.46003c-1.18584,-1.18328 -3.00736,-1.59474 -4.17816,-2.7929c-0.94584,-0.96795 -1.33485,-2.35465 -2.00227,-3.53198c-1.50208,-2.77185 -3.37943,-5.32355 -5.02843,-8.0106c-0.5161,-0.84099 -0.2843,-2.42172 -1.2336,-2.6909c-0.73982,-0.20978 0.35503,1.70976 -0.13419,2.30305c-0.712,0.86346 -2.21164,0.71014 -3.003,1.5015c-0.79136,0.79136 -0.70638,2.21542 -1.5015,3.003c-0.8878,0.87938 -2.30464,1.01835 -3.30899,1.76184c-1.28752,0.95311 -2.01434,2.70589 -3.50807,3.2846c-2.58726,1.00236 -8.4563,0.1903 -11.46722,0.1903c-1.2994,0 -6.54853,0.08625 -7.32033,-0.37337c-1.11378,-0.66327 -1.03831,-2.44523 -1.95494,-3.36186c-0.91663,-0.91663 -2.69859,-0.84116 -3.36186,-1.95494c-0.35446,-0.59522 -0.56417,-7.4839 -0.18307,-8.27704c0.07955,-0.16555 3.43344,-3.75266 5.24719,-5.54863c-1.95086,0.00127 -4.9049,-0.01792 -5.35854,-0.17893c-2.47333,-0.87787 -4.12659,-3.25871 -6.34127,-4.66697c-1.27462,-0.8105 -3.17786,-1.00937 -3.87481,-2.34945c-0.8968,-1.72434 -0.29119,-3.87697 -0.37337,-5.81883c-0.33225,-7.85021 2.42602,-12.72082 6.34373,-19.27284c2.26585,-3.78943 2.91134,-7.05181 6.79205,-9.84129c0.59714,-0.42923 1.21019,-0.80455 1.83668,-1.13273zM111.8113,49.28423c-0.44635,0.02756 -0.92846,-0.00082 -1.33148,0.12496c-0.14393,0.04492 0.2947,0.10595 0.44412,0.08581c0.30077,-0.04055 0.59361,-0.12921 0.88736,-0.21076z"/><path d="M305.20505,56.03602c3.88071,2.78948 4.5262,6.05186 6.79205,9.8413c3.91771,6.55202 6.67598,11.42262 6.34373,19.27284c-0.08218,1.94186 0.52343,4.09449 -0.37338,5.81883c-0.69696,1.34008 -2.60019,1.53895 -3.87481,2.34945c-2.21469,1.40827 -3.86794,3.7891 -6.34127,4.66697c-0.45364,0.16101 -3.40769,0.18021 -5.35854,0.17893c1.81374,1.79597 5.16764,5.38308 5.24719,5.54863c0.3811,0.79314 0.17139,7.68182 -0.18307,8.27704c-0.66327,1.11378 -2.44523,1.0383 -3.36187,1.95494c-0.91663,0.91664 -0.84116,2.69859 -1.95494,3.36187c-0.7718,0.45962 -6.02094,0.37338 -7.32033,0.37338c-3.01092,0 -8.87995,0.81205 -11.46721,-0.19031c-1.49373,-0.5787 -2.22055,-2.33148 -3.50807,-3.28459c-1.00436,-0.74349 -2.42119,-0.88246 -3.30899,-1.76184c-0.79512,-0.78758 -0.71015,-2.21164 -1.50151,-3.003c-0.79136,-0.79136 -2.291,-0.63805 -3.003,-1.5015c-0.48923,-0.5933 0.60563,-2.51283 -0.13419,-2.30305c-0.94931,0.26918 -0.7175,1.8499 -1.23361,2.69089c-1.649,2.68705 -3.52634,5.23874 -5.02843,8.0106c-0.66743,1.17732 -1.05642,2.56403 -2.00227,3.53197c-1.1708,1.19817 -2.99232,1.60962 -4.17816,2.7929c-0.9536,0.95154 -0.98816,2.68259 -2.08831,3.46003c-3.33741,2.35841 -5.6016,2.05082 -9.0928,2.0684c-1.69124,0.00852 -6.70786,0.13816 -7.77377,-0.73223c-0.89721,-0.73264 0.29123,-2.49772 -0.35886,-3.45644c-0.62809,-0.92629 -2.44132,-0.53351 -3.003,-1.50151c-0.72496,-1.24939 -0.2998,-2.87473 -0.37338,-4.31733c-0.20294,-3.97893 0,-8.02721 0,-12.01201c0,-1.001 -0.11781,-2.00896 0,-3.00301c0.0611,-0.51547 0.94752,-1.15674 0.52949,-1.46447c-1.58593,-1.16746 -6.09554,0.68655 -7.06596,0.95412c-4.94114,1.36239 -9.87029,2.1546 -14.91773,3.00959c-2.82391,0.47835 -5.69901,0.71472 -8.47298,1.42775c-2.62077,0.67364 -4.90951,2.37174 -7.53897,3.01065c-0.35224,0.08558 -5.93155,0.06687 -6.58039,0.06687c-0.83244,0 -9.63689,0.01104 -9.95006,-0.04002c-1.40839,-0.22963 -2.61362,-1.20284 -4.00901,-1.5015c-2.49337,-0.53366 -5.5252,-0.3907 -7.32821,-2.19371c-3.39615,-3.39615 -2.89596,-10.19542 -0.219,-13.79576c1.11142,-1.49479 3.12114,-2.04363 4.57896,-3.20312c1.40039,-1.11381 2.38243,-2.79506 3.97878,-3.60335c1.00133,-0.50702 2.2903,0.20794 3.36515,-0.11517c1.54674,-0.46497 2.77447,-1.72494 4.31969,-2.19496c1.62682,-0.49484 3.40934,-0.24406 5.05867,-0.65774c1.47232,-0.36928 2.74303,-1.39494 4.23523,-1.67328c1.63153,-0.30433 3.31921,-0.03028 4.97882,-0.04541c3.50351,0 7.00701,0 10.51051,0c1.001,0 2.00515,-0.07941 3.003,0c0.01905,0.00151 0.03806,0.00326 0.05704,0.00521c-0.12099,-0.05751 -0.2302,-0.13553 -0.32331,-0.24195c-2.9811,-3.40726 -2.97552,-6.13428 0,-9.54154c0.19878,-0.22762 6.23946,-3.31355 6.81707,-3.54493c5.43353,-2.17664 10.18023,-3.28561 15.97172,-3.19331c1.24284,0.01981 2.56564,-0.33456 3.72746,0.10727c1.08878,0.41405 1.98484,0.88007 2.77146,1.39811c0.00281,-0.16487 0.00619,-0.33373 0.01009,-0.50688c0.04095,-1.82105 -0.47918,-3.7672 0.1903,-5.46122c0.61622,-1.55923 2.34832,-2.39834 3.42406,-3.6843c1.69067,-2.02106 2.73352,-4.64157 4.79127,-6.28738c0.91931,-0.73528 2.20162,-0.90355 3.1431,-1.61022c2.25615,-1.69346 4.16602,-4.1888 6.8934,-4.90953c4.92291,-1.30091 8.82662,-0.24813 10.51501,4.86174c0.84522,2.55804 0.19745,5.391 0.06688,8.08189c-0.05189,1.06939 -0.28893,2.12286 -0.37338,3.19017c-0.0119,0.15031 0.05452,0.59162 0.0858,0.44412c0.70325,-3.31533 3.20029,-4.9627 4.76847,-8.09907c0.96816,-0.95185 2.2022,-1.69359 2.90448,-2.85555c0.88485,-1.46403 0.67428,-3.48964 1.73949,-4.82818c0.89633,-1.12633 2.46689,-1.49581 3.7736,-2.09957c1.46525,-0.67701 2.93847,-2.04834 4.5215,-1.73315c1.74128,0.34669 2.63337,2.3916 4.06432,3.44262c1.61843,1.18872 4.26292,0.18386 5.85856,1.40298c3.06946,2.34517 2.8592,6.04596 2.72972,9.4173c0.62649,0.32818 1.23954,0.7035 1.83668,1.13273zM216.92891,81.52202c0.14942,0.02014 0.58805,-0.04089 0.44412,-0.0858c-0.40303,-0.12578 -0.88513,-0.09741 -1.33148,-0.12496c0.29375,0.08155 0.58659,0.17021 0.88736,0.21076z" data-paper-data="{&quot;index&quot;:null}"/><path d="M362.97813,93.73628c-3.88071,-2.78948 -4.5262,-6.05186 -6.79205,-9.8413c-3.91771,-6.55202 -6.67599,-11.42262 -6.34374,-19.27283c0.08219,-1.94186 -0.52342,-4.0945 0.37338,-5.81883c0.69696,-1.34008 2.60019,-1.53895 3.87482,-2.34945c2.21469,-1.40826 3.86793,-3.7891 6.34127,-4.66697c0.45364,-0.16102 3.40769,-0.18021 5.35854,-0.17893c-1.81374,-1.79597 -5.16764,-5.38308 -5.24719,-5.54863c-0.3811,-0.79314 -0.17139,-7.68182 0.18307,-8.27704c0.66327,-1.11378 2.44523,-1.0383 3.36187,-1.95494c0.91663,-0.91663 0.84116,-2.69859 1.95494,-3.36186c0.7718,-0.45962 6.02094,-0.37338 7.32034,-0.37338c3.01092,0 8.87995,-0.81205 11.46722,0.1903c1.49373,0.57871 2.22055,2.33149 3.50807,3.2846c1.00436,0.74349 2.42119,0.88246 3.309,1.76184c0.79512,0.78758 0.71014,2.21164 1.50151,3.003c0.79136,0.79136 2.291,0.63804 3.003,1.5015c0.48922,0.5933 -0.60563,2.51283 0.13419,2.30305c0.94931,-0.26918 0.7175,-1.8499 1.23361,-2.6909c1.64899,-2.68705 3.52634,-5.23874 5.02843,-8.0106c0.66742,-1.17732 1.05642,-2.56403 2.00227,-3.53198c1.1708,-1.19816 2.99232,-1.60962 4.17816,-2.7929c0.95359,-0.95154 0.98816,-2.68259 2.08831,-3.46003c3.33741,-2.35841 5.6016,-2.05081 9.0928,-2.0684c1.69124,-0.00852 6.70785,-0.13816 7.77378,0.73223c0.89721,0.73264 -0.29123,2.49772 0.35886,3.45644c0.62809,0.92628 2.44132,0.53351 3.003,1.50151c0.72496,1.24938 0.2998,2.87472 0.37338,4.31733c0.20294,3.97893 0,8.02721 0,12.01201c0,1.001 0.11781,2.00896 0,3.00301c-0.0611,0.51547 -0.94752,1.15674 -0.52949,1.46447c1.58592,1.16746 6.09554,-0.68654 7.06596,-0.95412c4.94114,-1.36239 9.87029,-2.1546 14.91773,-3.00959c2.82391,-0.47835 5.69901,-0.71472 8.47298,-1.42774c2.62077,-0.67364 4.90951,-2.37174 7.53897,-3.01065c0.35224,-0.08559 5.93155,-0.06688 6.58039,-0.06688c0.83244,0 9.6369,-0.01103 9.95006,0.04003c1.40839,0.22963 2.61362,1.20284 4.00901,1.5015c2.49337,0.53366 5.5252,0.3907 7.32822,2.19371c3.39615,3.39615 2.89596,10.19543 0.219,13.79576c-1.11143,1.49479 -3.12114,2.04363 -4.57896,3.20312c-1.40039,1.11381 -2.38243,2.79506 -3.97878,3.60335c-1.00133,0.50702 -2.2903,-0.20794 -3.36516,0.11517c-1.54674,0.46497 -2.77447,1.72494 -4.31969,2.19496c-1.62682,0.49484 -3.40934,0.24406 -5.05867,0.65774c-1.47233,0.36927 -2.74303,1.39494 -4.23523,1.67328c-1.63153,0.30433 -3.31921,0.03027 -4.97882,0.04541c-3.50351,0 -7.007,0 -10.51051,0c-1.001,0 -2.00515,0.07941 -3.003,0c-0.01905,-0.00151 -0.03806,-0.00326 -0.05704,-0.00521c0.12099,0.05751 0.2302,0.13553 0.32331,0.24194c2.9811,3.40726 2.97552,6.13428 0,9.54154c-0.19878,0.22762 -6.23946,3.31355 -6.81707,3.54493c-5.43353,2.17664 -10.18023,3.28561 -15.97172,3.1933c-1.24284,-0.01981 -2.56564,0.33456 -3.72746,-0.10727c-1.08878,-0.41405 -1.98484,-0.88007 -2.77146,-1.39811c-0.00281,0.16487 -0.00619,0.33373 -0.01009,0.50687c-0.04094,1.82105 0.47919,3.7672 -0.1903,5.46122c-0.61622,1.55923 -2.34832,2.39834 -3.42407,3.6843c-1.69067,2.02105 -2.73352,4.64157 -4.79127,6.28738c-0.91932,0.73528 -2.20162,0.90356 -3.1431,1.61023c-2.25616,1.69346 -4.16602,4.1888 -6.8934,4.90953c-4.92291,1.30091 -8.82661,0.24812 -10.51501,-4.86175c-0.84522,-2.55803 -0.19745,-5.391 -0.06688,-8.08189c0.05189,-1.06939 0.28893,-2.12286 0.37338,-3.19018c0.0119,-0.15031 -0.05452,-0.59161 -0.0858,-0.44412c-0.70325,3.31534 -3.20029,4.9627 -4.76847,8.09907c-0.96816,0.95185 -2.20221,1.69359 -2.90449,2.85555c-0.88485,1.46404 -0.67428,3.48964 -1.73949,4.82818c-0.89633,1.12633 -2.46689,1.49581 -3.7736,2.09956c-1.46525,0.67702 -2.93847,2.04834 -4.52149,1.73316c-1.74128,-0.3467 -2.63337,-2.3916 -4.06432,-3.44262c-1.61843,-1.18872 -4.26292,-0.18385 -5.85856,-1.40298c-3.06946,-2.34517 -2.8592,-6.04596 -2.72972,-9.41731c-0.62649,-0.32817 -1.23954,-0.7035 -1.83668,-1.13273zM451.25427,68.25028c-0.14942,-0.02015 -0.58805,0.04089 -0.44412,0.0858c0.40303,0.12578 0.88513,0.09741 1.33148,0.12496c-0.29375,-0.08155 -0.58659,-0.17021 -0.88736,-0.21076z" data-paper-data="{&quot;index&quot;:null}"/><path d="M572.79066,35.16604c1.13976,-0.34159 2.38857,0.06529 3.56842,-0.08854c3.19071,-0.41602 3.75509,-1.72362 7.32875,-0.69881c4.26657,1.22351 7.01898,6.22807 9.2292,9.66687c0.57472,0.89419 1.55185,1.6611 1.82275,2.66049c2.52649,-1.12483 5.21116,-2.39113 8.07678,-1.22138c1.67636,0.68429 4.32298,4.14881 5.19262,5.86995c1.89747,3.75537 2.48423,7.59627 3.37595,11.63836c0.6901,3.12816 1.2858,3.77848 0.8361,7.09364c-0.23393,1.72448 -0.25827,3.61677 -1.19797,5.08152c-0.37888,0.59059 -0.7794,1.07662 -1.19641,1.47017c1.86991,1.60249 3.09008,3.85436 4.82373,5.60656c2.66677,2.69531 5.99388,2.79732 4.50081,8.18073c-0.25424,0.91669 -4.5347,3.52026 -5.612,4.28877c-5.36512,3.82733 -9.29971,8.53214 -13.84853,13.11193c0,0 -0.76052,0.76052 -1.78272,0.78507c-0.95389,0.62984 -2.14518,0.27291 -2.14518,0.27291l-0.30491,-0.09136c-6.84695,-2.06254 -12.90756,-4.87176 -18.56565,-9.26037c-2.07907,-1.61259 -4.15043,-3.23663 -6.17127,-4.92161c-1.00523,-0.83817 -2.17467,-1.51966 -3.1297,-2.40581c0.01461,0.17468 0.0342,0.34745 0.06456,0.51608c-0.69739,0.73454 -4.33948,4.69954 -5.21879,5.07796c-1.0363,0.44598 -2.2981,-0.18845 -3.38233,0.12342c-1.43263,0.41208 -2.55087,1.65036 -4,2c-2.23149,0.53839 -5.09488,-0.22224 -7.41733,0.07335c-3.37462,0.42951 -6.75521,0.98851 -10.15705,0.99353c-3.99536,0.00589 -8.76999,1.22616 -10.45658,-4.03608c-0.38226,-1.19268 0.85077,-2.36359 1.11751,-3.58729c0.36458,-1.67253 0.20767,-3.46079 0.77117,-5.07718c1.57101,-4.50634 4.94966,-8.49627 6.11301,-13.27222c0.27508,-1.1293 -0.31113,-2.41494 0.14519,-3.48394c0.46618,-1.09211 1.5356,-1.80314 2.38254,-2.64746c-1.62051,-0.15912 -3.22959,-0.49646 -4.77181,-0.99553c-1.51093,-0.40827 -3.1679,-0.45884 -4.53278,-1.2248c-1.26032,-0.70728 -1.88437,-2.24083 -3.08258,-3.04887c-1.02563,-0.69166 -2.60247,-0.461 -3.45344,-1.35886c-0.98334,-1.03753 -1.11206,-2.63501 -1.60394,-3.97719c-2.27451,-6.20643 -0.71968,-10.02645 5.27372,-13.03655c3.9967,-2.00729 8.95446,-2.28513 13.23037,-3.39634c0.5938,-0.15431 9.46163,-2.79892 9.84412,-2.85884c1.6076,-0.25183 3.28657,0.23481 4.88076,-0.0913c1.64188,-0.33587 3.01998,-1.56895 4.66997,-1.86243c1.9275,-0.34283 3.92872,-0.24021 5.87322,-0.01283c0.12146,0.0142 2.22369,0.70791 3.98852,1.29479c1.31048,-0.87799 4.53851,-3.03582 4.9212,-3.15051z"/></g></g></svg>