<svg version="1.1" xmlns="http://www.w3.org/2000/svg" xmlns:xlink="http://www.w3.org/1999/xlink" width="53.73585" height="67.4" viewBox="0,0,53.73585,67.4"><g transform="translate(-293.68081,-152.58333)"><g data-paper-data="{&quot;isPaintingLayer&quot;:true}" fill-rule="nonzero" stroke="none" stroke-width="0.5" stroke-linecap="butt" stroke-linejoin="miter" stroke-miterlimit="10" stroke-dasharray="" stroke-dashoffset="0" style="mix-blend-mode: normal"><path d="M294.31667,155.08333c0,-2.5 2.5,-2.5 2.5,-2.5c0.86667,0 4.33333,0 5.2,0c5.78832,0 11.32384,0.89375 17.07722,1.30629c2.57664,0.18476 7.76759,-0.96541 10.00575,0.24045c4.60004,2.47837 2.43609,5.28551 3.05965,8.95259c0.2856,1.67958 5.18871,3.26921 6.07748,4.34985c0.69479,0.84479 0.69328,2.0795 1.15118,3.07284c0.40779,0.88463 1.18303,1.60385 1.43801,2.54397c0.9769,3.60193 0.06923,6.37991 2.10342,9.77022c0.65355,3.60603 0.84598,7.30559 1.42168,10.86332c0.36802,2.27431 1.74445,3.04319 1.76561,5.60046c0.00355,0.42928 -0.10115,1.14898 -0.27774,2.00895c0.92426,0.36704 1.57774,1.2694 1.57774,2.32439c0,1.38071 -1.11929,2.5 -2.5,2.5c-0.13544,0 -0.26836,-0.01077 -0.39795,-0.0315c-0.44594,1.28553 -0.91388,2.34906 -1.30095,2.76593c-0.77729,0.83716 -2.17906,0.73193 -3.17305,1.29496c-1.57132,0.89003 -3.09712,1.86505 -4.5679,2.9129c-1.29807,0.92481 -2.27074,2.27425 -3.61731,3.12689c-4.05774,2.56935 -9.95838,3.78316 -14.67616,3.79748c0,0 -0.2787,0 -0.65,-0.09306c-0.3713,0.09306 -0.65,0.09306 -0.65,0.09306c-2.88889,0 -7.07778,0 -9.96667,0c0,0 -2.5,0 -2.5,-2.5c0,-0.65337 0.17076,-1.13598 0.42301,-1.49246c-0.95068,-2.52263 -2.09483,-6.52963 -2.21445,-6.92029c-1.06487,-3.06058 -1.89477,-6.21239 -3.18416,-9.18536c-1.94603,-4.48702 -5.85949,-9.34884 -4.46703,-14.70256c0.47417,-1.82309 2.3621,-2.97879 3.15984,-4.68527c1.01955,-2.18095 0.05738,-5.32873 0.75672,-7.50519c0.33906,-1.05521 1.34038,-1.7869 1.80124,-2.79489c1.66601,-3.64383 -2.30142,-8.01871 -4.3624,-10.48019c0,0 -1.17328,-1.40793 -0.30522,-2.81741c-0.39968,-0.36961 -0.70756,-0.93906 -0.70756,-1.81639z" fill="#b9b9b9"/><path d="M310.41938,166.48911c0.48087,-0.06059 1.00111,-0.07544 1.56395,-0.03911c1.56212,0.10081 3.56314,0.069 4.50755,1.3174c1.21192,1.60201 0.67906,6.6915 -1.31759,7.83242c0.77426,1.22102 1.63438,2.41306 1.88225,3.81178c0.63858,3.6035 -1.94528,7.4238 -6.29611,6.64345c-1.46639,-0.26301 -1.87364,-2.33225 -2.61527,-3.62432c-0.17519,-0.30522 0.27654,-1.11649 -0.0697,-1.05347c-0.58443,0.10637 -0.63634,1.25959 -1.2296,1.28995c-1.73771,0.08893 -3.79561,0.1521 -5.13006,-0.96449c-3.10703,-2.59975 -1.85001,-6.17194 0.26743,-8.45381c0.3436,-0.37028 1.43675,0.36137 1.50908,-0.13857c0.08222,-0.56832 -1.25126,-0.52528 -1.33076,-1.09399c-0.37066,-2.6514 1.17475,-7.1064 4.34671,-7.71772c0.1413,-0.02723 2.22397,1.18854 3.91212,2.19049z" fill="#ba0000"/><path d="M326.5685,187.34459c-0.67379,-3.78704 -0.28443,-8.00078 4.2475,-9.10387c1.59929,-0.38928 3.46332,-0.50852 4.93241,0.23379c1.90398,0.96205 3.25619,5.17398 2.99393,7.13772c-0.02233,0.16722 -0.12137,0.29089 -0.25535,0.39606c0.01585,-0.00058 0.03125,0.00035 0.04612,0.00292c1.52663,0.2635 3.38479,0.42748 4.34845,1.64049c1.06093,1.33545 1.4145,3.38705 0.94917,5.02792c-0.4523,1.59495 -1.99672,2.7494 -3.40345,3.62664c-0.85518,0.53329 -1.92027,0.72971 -2.94858,0.72565c0.23857,1.31203 0.31248,2.79058 -0.35321,3.91652c-1.9989,3.38087 -5.00506,2.43287 -8.00255,2.33223c-1.52971,-1.66195 -2.61102,-3.71564 -4.2156,-5.30543c-0.7788,-0.77163 -2.12429,-0.93474 -2.71267,-1.85981c-2.56867,-4.03854 -2.99323,-6.74337 2.13045,-8.7772c0.70699,-0.28064 1.47072,-0.16806 2.24337,0.00638zM337.95115,186.33482c-0.17742,0.10657 -0.33872,0.2258 -0.42605,0.39233c-0.11528,0.21983 0.12665,-0.1103 0.42605,-0.39233z" fill="#ba0000"/></g></g></svg>