<svg version="1.1" xmlns="http://www.w3.org/2000/svg" xmlns:xlink="http://www.w3.org/1999/xlink" width="80.50655" height="58.53241" viewBox="0,0,80.50655,58.53241"><g transform="translate(-290.23214,-161.004)"><g data-paper-data="{&quot;isPaintingLayer&quot;:true}" fill="#000000" fill-rule="nonzero" stroke="none" stroke-width="0.5" stroke-linecap="butt" stroke-linejoin="miter" stroke-miterlimit="10" stroke-dasharray="" stroke-dashoffset="0" style="mix-blend-mode: normal"><path d="M299.73052,162.73442c0.42514,-0.46102 0.60668,-1.23074 1.1905,-1.45973c0.63681,-0.24977 1.36089,0.16336 2.04445,0.18916c1.99858,0.07541 4.00462,-0.00391 6.00462,-0.00391c1.6823,0 3.51301,-0.88099 5.04852,-0.19372c0.86055,0.38517 1.10665,1.70127 2.00108,1.99941c1.26491,0.42164 2.7364,-0.41124 4.00555,-0.00255c0.77711,0.25024 0.9401,1.40265 1.64392,1.81636c2.11872,1.24543 4.90307,0.93543 7.09539,2.0462c0.92753,0.46995 1.31104,1.75706 2.28008,2.13408c1.13551,0.4418 2.45494,-0.0085 3.65984,0.17255c3.44117,0.5171 6.53545,2.43288 9.92615,2.99627c0.52357,0.087 5.13521,0.01686 6.00637,0.00604c3.28364,1.09455 5.96691,1.06055 9.40649,1.04072c0.87266,-0.00503 3.63131,-0.29738 4.53988,0.53128c6.45986,5.89176 5.96558,14.13531 5.96614,22.00051c0.00016,2.27775 0.47992,4.63509 -0.08911,6.84062c-0.39547,1.53279 -1.30258,2.89847 -1.79343,4.40344c-0.37478,1.14911 -0.26436,2.45698 -0.79862,3.54117c-0.3549,0.72021 -1.25436,1.02483 -1.75923,1.64914c-2.68865,3.32465 -3.76914,6.0443 -8.07482,7.09496c-0.76713,-0.11144 -1.74898,0.20937 -2.30277,-0.33304c-0.60609,-0.59364 -0.20567,-1.82488 -0.63898,-2.55425c-0.57943,-0.97536 -1.49445,-1.57215 -2.2907,-2.38027c-1.89768,-1.92595 -3.41223,-2.99814 -4.59054,-5.40341c-0.49934,-1.0193 -0.53856,-2.23973 -1.12134,-3.21374c-0.49354,-0.82487 -1.53481,-1.22408 -2.03055,-2.04763c-1.57437,-2.61548 -2.2538,-5.75948 -4.1337,-8.16477c-3.02787,-3.87409 -7.7189,-3.39663 -12.26234,-2.88148c-2.44275,0.27696 -4.68275,1.59923 -7.1089,1.99607c-2.39138,0.39115 -5.07531,0.00341 -7.02488,1.44246c-1.05331,0.77749 -1.32396,2.29089 -2.25246,3.21385c-0.85237,0.8473 -2.15203,1.14786 -3.00045,1.99911c-2.37206,2.37996 -4.38609,5.37245 -6.8201,7.82951c-1,0.66666 -2.0891,1.21597 -3,2.00001c-0.89351,0.76908 -1.39629,2.15995 -2.45424,2.68014c-0.79196,0.38941 -1.77427,-0.00938 -2.64391,-0.15961c-5.36729,-0.9272 -3.90641,-7.5466 -3.90641,-11.5453c0,-1.33334 -0.00111,-2.67125 -0.00111,-4.00458c0,-4.07668 -0.46956,-8.57343 -0.03283,-12.61508c0.27046,-2.50289 1.65431,-3.02666 2.77947,-5.30921c1.0512,-2.13253 0.9039,-4.73186 1.93291,-6.87518c0.92395,-1.92449 3.08681,-2.9614 4.59634,-4.47092c0,0 1.76997,-1.77069 0.00221,-3.53845c-0.57018,-0.57019 -1.1407,-0.77214 -1.65157,-0.78464c0.4893,-0.48523 1.038,-1.01461 1.65307,-1.68158z" data-paper-data="{&quot;noHover&quot;:false,&quot;origItem&quot;:[&quot;Path&quot;,{&quot;applyMatrix&quot;:true,&quot;segments&quot;:[[[596.23306,328.89437],[0.97859,-0.97045],[1.02173,0.025]],[[599.53553,330.46447],[-1.14037,-1.14037],[3.53553,3.53553]],[[599.53553,337.53553],[0,0],[-3.01905,3.01905]],[[590.351,346.46349],[1.84789,-3.84898],[-2.05802,4.28665]],[[586.49158,360.19676],[2.10241,-4.26506],[-2.25032,4.56511]],[[580.93544,370.80091],[0.54092,-5.00579],[-0.87348,8.0833]],[[581,396],[0,-8.15337],[0,2.66667]],[[581,404],[0,-2.66667],[0,7.9974]],[[588.80091,427.06456],[-10.73458,-1.8544],[1.73928,0.30046]],[[594.08658,427.3806],[-1.58392,0.77881],[2.1159,-1.04038]],[[598.83006,422.13329],[-1.78703,1.53816],[1.82179,-1.56808]],[[604.83006,418.13329],[-2,1.33333],[4.86803,-4.91412]],[[618.46447,402.46447],[-4.74412,4.75992],[1.69684,-1.7025]],[[624.46447,398.46447],[-1.70474,1.69459],[1.85699,-1.84593]],[[628.96503,392.02647],[-2.10663,1.55498],[3.89914,-2.8781]],[[643.19909,389.06456],[-4.78276,0.78231],[4.85231,-0.79368]],[[657.38908,385.03746],[-4.88549,0.55393],[9.08688,-1.0303]],[[681.94103,390.92294],[-6.05574,-7.74818],[3.75979,4.81057]],[[690.19258,407.27562],[-3.14875,-5.23096],[0.99147,1.64711]],[[694.25325,411.37134],[-0.98709,-1.64974],[1.16555,1.94801]],[[696.49158,417.80324],[-0.99868,-2.0386],[2.35662,4.81055]],[[705.53553,428.46447],[-3.79536,-3.85191],[1.5925,1.61623]],[[710.25325,433.37134],[-1.15887,-1.95071],[0.86661,1.45875]],[[711.39725,438.33139],[-1.21218,-1.18727],[1.10759,1.08483]],[[716,439],[-1.53425,-0.22287],[8.61136,-2.10132]],[[732.13329,424.83006],[-5.37729,6.64929],[1.00975,-1.24861]],[[735.649,421.53651],[-0.7098,1.44042],[1.06852,-2.16839]],[[737.24253,414.46165],[-0.74956,2.29822],[0.98169,-3.00994]],[[740.82537,405.66539],[-0.79093,3.06559],[1.13806,-4.41106]],[[741,392],[0.00032,4.5555],[-0.00112,-15.7304]],[[729.07645,348.05621],[12.91972,11.78353],[-1.81713,-1.65733]],[[720,347],[1.74533,-0.01006],[-6.87916,0.03966]],[[701.19909,344.93544],[6.56728,2.18909],[-1.74233,0.02164]],[[689.19909,344.93544],[1.04714,0.17399],[-6.7814,-1.12677]],[[669.38908,338.96254],[6.88235,1.03419],[-2.4098,-0.36211]],[[662.08658,338.6194],[2.27102,0.88359],[-1.93807,-0.75405]],[[657.53651,334.351],[1.85507,0.9399],[-4.38465,-2.22154]],[[643.37134,330.25325],[4.23745,2.49086],[-1.40763,-0.82743]],[[640.08658,326.6194],[1.55421,0.50048],[-2.53831,-0.81737]],[[632.08658,326.6194],[2.52982,0.84327],[-1.78885,-0.59628]],[[628.08658,322.6194],[1.72109,0.77033],[-3.07101,-1.37453]],[[618,323],[3.36459,0],[-4,0]],[[606,323],[3.99716,0.15083],[-1.36712,-0.05159]],[[601.91342,322.6194],[1.27362,-0.49955],[-1.16764,0.45798]],[[599.53553,325.53553],[0.85028,-0.92204],[-1.23013,1.33395]]],&quot;closed&quot;:true}]}"/></g></g></svg>